<mxfile host="app.diagrams.net" agent="Mozilla/5.0 (Macintosh; Intel Mac OS X 10_15_7) AppleWebKit/537.36 (KHTML, like Gecko) Chrome/132.0.0.0 Safari/537.36" version="26.0.10">
  <diagram name="Page-1" id="1OJ8WdpNq4JF3JT3hS8d">
    <mxGraphModel dx="1026" dy="656" grid="1" gridSize="10" guides="1" tooltips="1" connect="1" arrows="1" fold="1" page="1" pageScale="1" pageWidth="827" pageHeight="1169" math="0" shadow="0">
      <root>
        <mxCell id="0" />
        <mxCell id="1" parent="0" />
        <mxCell id="2isdWN0NhqI7p0srbBEO-1" value="PGraphicsLib" style="rounded=0;whiteSpace=wrap;html=1;" vertex="1" parent="1">
          <mxGeometry x="350" y="310" width="120" height="60" as="geometry" />
        </mxCell>
        <mxCell id="2isdWN0NhqI7p0srbBEO-7" style="edgeStyle=orthogonalEdgeStyle;rounded=0;orthogonalLoop=1;jettySize=auto;html=1;" edge="1" parent="1" source="2isdWN0NhqI7p0srbBEO-2" target="2isdWN0NhqI7p0srbBEO-1">
          <mxGeometry relative="1" as="geometry" />
        </mxCell>
        <mxCell id="2isdWN0NhqI7p0srbBEO-2" value="PGViewer" style="rounded=0;whiteSpace=wrap;html=1;" vertex="1" parent="1">
          <mxGeometry x="250" y="210" width="120" height="60" as="geometry" />
        </mxCell>
        <mxCell id="2isdWN0NhqI7p0srbBEO-8" style="edgeStyle=orthogonalEdgeStyle;rounded=0;orthogonalLoop=1;jettySize=auto;html=1;" edge="1" parent="1" source="2isdWN0NhqI7p0srbBEO-3" target="2isdWN0NhqI7p0srbBEO-1">
          <mxGeometry relative="1" as="geometry" />
        </mxCell>
        <mxCell id="2isdWN0NhqI7p0srbBEO-3" value="PGTester" style="rounded=0;whiteSpace=wrap;html=1;" vertex="1" parent="1">
          <mxGeometry x="450" y="210" width="120" height="60" as="geometry" />
        </mxCell>
        <mxCell id="2isdWN0NhqI7p0srbBEO-6" value="PGSP modules" style="text;html=1;align=center;verticalAlign=middle;whiteSpace=wrap;rounded=0;" vertex="1" parent="1">
          <mxGeometry x="380" y="225" width="60" height="30" as="geometry" />
        </mxCell>
      </root>
    </mxGraphModel>
  </diagram>
</mxfile>
